<!DOCTYPE svg PUBLIC "-//W3C//DTD SVG 1.1//EN" "http://www.w3.org/Graphics/SVG/1.1/DTD/svg11.dtd">
<!-- Uploaded to: SVG Repo, www.svgrepo.com, Transformed by: SVG Repo Mixer Tools -->
<svg fill="#ff0000" width="201px" height="201px" viewBox="0 0 32.00 32.00" version="1.1" xmlns="http://www.w3.org/2000/svg" stroke="#ff0000">
<g id="SVGRepo_bgCarrier" stroke-width="0"/>
<g id="SVGRepo_tracerCarrier" stroke-linecap="round" stroke-linejoin="round"/>
<g id="SVGRepo_iconCarrier"> <title>blocked</title> <path d="M16 29c-7.179 0-13-5.82-13-13s5.821-13 13-13c7.18 0 13 5.82 13 13s-5.82 13-13 13zM16 26c2.211 0 4.249-0.727 5.905-1.941l-13.963-13.962c-1.216 1.655-1.942 3.692-1.942 5.903 0 5.522 4.477 10 10 10zM16 6c-2.228 0-4.279 0.737-5.941 1.97l13.971 13.972c1.232-1.663 1.97-3.713 1.97-5.942 0-5.523-4.477-10-10-10z"/> </g>
</svg>